<svg width="24" height="24" viewBox="0 0 24 24" fill="none" xmlns="http://www.w3.org/2000/svg">
<path d="M2.00005 12C2.00005 7.28632 2.00005 4.92842 3.46426 3.46421C4.92847 2 7.28531 2 12.0011 2C16.7148 2 19.0716 2 20.5358 3.46421C22 4.92842 22 7.28526 22 12C22 16.7137 22 19.0716 20.5358 20.5358C19.0716 22 16.7148 22 12 22C7.28636 22 4.92952 22 3.46426 20.5358C2.0011 19.0705 2.00005 16.7147 2.00005 12Z" stroke="black" stroke-width="1.50338" stroke-linecap="round" stroke-linejoin="round"/>
<path d="M13.8347 6.396C12.8125 6.396 11.8322 6.80206 11.1094 7.52486C10.3866 8.24765 9.98051 9.22797 9.98051 10.2502V12.396H7.91801C7.81468 12.396 7.73051 12.4793 7.73051 12.5835V15.4168C7.73051 15.5202 7.81385 15.6043 7.91801 15.6043H9.98051V21.4168C9.98051 21.5202 10.0638 21.6043 10.168 21.6043H13.0013C13.1047 21.6043 13.1888 21.521 13.1888 21.4168V15.6043H15.2697C15.3555 15.6043 15.4305 15.546 15.4513 15.4627L16.1597 12.6293C16.1667 12.6017 16.1672 12.5728 16.1614 12.5449C16.1555 12.517 16.1433 12.4908 16.1258 12.4683C16.1083 12.4458 16.0859 12.4276 16.0603 12.4151C16.0347 12.4025 16.0065 12.396 15.978 12.396H13.1888V10.2502C13.1888 10.1654 13.2056 10.0814 13.238 10.003C13.2705 9.92466 13.318 9.85346 13.378 9.79349C13.438 9.73352 13.5092 9.68595 13.5875 9.65349C13.6659 9.62103 13.7499 9.60433 13.8347 9.60433H16.0013C16.1047 9.60433 16.1888 9.521 16.1888 9.41683V6.5835C16.1888 6.48016 16.1055 6.396 16.0013 6.396H13.8347Z" fill="black"/>
</svg>
