<svg width="24" height="24" viewBox="0 0 24 24" fill="none" xmlns="http://www.w3.org/2000/svg">
<path d="M2 12C2 7.28632 2 4.92842 3.46421 3.46421C4.92842 2 7.28526 2 12.0011 2C16.7147 2 19.0716 2 20.5358 3.46421C22 4.92842 22 7.28526 22 12C22 16.7137 22 19.0716 20.5358 20.5358C19.0716 22 16.7147 22 12 22C7.28632 22 4.92947 22 3.46421 20.5358C2.00105 19.0705 2 16.7147 2 12Z" stroke="black" stroke-width="1.50338" stroke-linecap="round" stroke-linejoin="round"/>
<path d="M12.0029 6.95312C14.7915 6.95315 17.0536 9.21446 17.0536 12.002C17.0536 14.7894 14.7915 17.0508 12.0029 17.0508C9.21421 17.0508 6.95214 14.7894 6.95209 12.002C6.95209 9.21445 9.21418 6.95312 12.0029 6.95312ZM12.0029 8.56152C10.1025 8.56152 8.56146 10.1022 8.56146 12.002C8.56152 13.9017 10.1025 15.4424 12.0029 15.4424C13.9032 15.4424 15.4442 13.9016 15.4443 12.002C15.4443 10.1022 13.9032 8.56154 12.0029 8.56152Z" fill="black" stroke="white" stroke-width="0.200451"/>
<path d="M18.5614 6.64552C18.5614 7.31121 18.0209 7.84768 17.3588 7.84768C16.6929 7.84768 16.1562 7.3073 16.1562 6.64552C16.1562 5.97983 16.6968 5.44336 17.3588 5.44336C18.0209 5.44336 18.5614 5.98374 18.5614 6.64552Z" fill="black"/>
</svg>
