<svg width="24" height="24" viewBox="0 0 24 24" fill="none" xmlns="http://www.w3.org/2000/svg">
<path d="M2.00003 12C2.00003 7.28632 2.00003 4.92842 3.46424 3.46421C4.92845 2 7.28529 2 12.0011 2C16.7148 2 19.0716 2 20.5358 3.46421C22 4.92842 22 7.28526 22 12C22 16.7137 22 19.0716 20.5358 20.5358C19.0716 22 16.7148 22 12 22C7.28635 22 4.9295 22 3.46424 20.5358C2.00108 19.0705 2.00003 16.7147 2.00003 12Z" stroke="black" stroke-width="1.50338" stroke-linecap="round" stroke-linejoin="round"/>
<path d="M8.66655 7.33393C8.66637 7.68753 8.52574 8.02658 8.27558 8.27649C8.02542 8.5264 7.68623 8.6667 7.33262 8.66652C6.97902 8.66634 6.63997 8.5257 6.39006 8.27554C6.14015 8.02539 5.99985 7.6862 6.00003 7.33259C6.00021 6.97899 6.14085 6.63994 6.391 6.39003C6.64116 6.14012 6.98035 5.99982 7.33396 6C7.68756 6.00018 8.02661 6.14081 8.27652 6.39097C8.52643 6.64113 8.66673 6.98032 8.66655 7.33393ZM8.70655 9.6538H6.04003V18H8.70655V9.6538ZM12.9196 9.6538H10.2665V18H12.893V13.6202C12.893 11.1804 16.0728 10.9537 16.0728 13.6202V18H18.706V12.7136C18.706 8.60052 13.9996 8.75385 12.893 10.7737L12.9196 9.6538Z" fill="black"/>
</svg>
