<svg width="24" height="24" viewBox="0 0 24 24" fill="none" xmlns="http://www.w3.org/2000/svg">
<path d="M1.99997 12C1.99997 7.28632 1.99997 4.92842 3.46418 3.46421C4.92839 2 7.28523 2 12.001 2C16.7147 2 19.0715 2 20.5358 3.46421C22 4.92842 22 7.28526 22 12C22 16.7137 22 19.0716 20.5358 20.5358C19.0715 22 16.7147 22 12 22C7.28629 22 4.92944 22 3.46418 20.5358C2.00102 19.0705 1.99997 16.7147 1.99997 12Z" stroke="black" stroke-width="1.50338" stroke-linecap="round" stroke-linejoin="round"/>
<path d="M6.73825 17.2636L11.153 12.8499M11.153 12.8499L6.73825 6.7373H9.66141L12.8509 11.152L17.2646 6.7373M11.153 12.8499L14.3404 17.2636H17.2646L12.8509 11.151" stroke="black" stroke-width="1.57895" stroke-linecap="round" stroke-linejoin="round"/>
</svg>
