<svg width="24" height="24" viewBox="0 0 24 24" fill="none" xmlns="http://www.w3.org/2000/svg">
<path d="M1.99997 12C1.99997 7.28632 1.99997 4.92842 3.46418 3.46421C4.92839 2 7.28523 2 12.001 2C16.7147 2 19.0715 2 20.5358 3.46421C22 4.92842 22 7.28526 22 12C22 16.7137 22 19.0716 20.5358 20.5358C19.0715 22 16.7147 22 12 22C7.28629 22 4.92944 22 3.46418 20.5358C2.00102 19.0705 1.99997 16.7147 1.99997 12Z" stroke="black" stroke-width="1.50338" stroke-linecap="round" stroke-linejoin="round"/>
<path d="M15.2292 11.134C15.8959 11.5189 15.8959 12.4811 15.2292 12.866L10.7292 15.4641C10.0626 15.849 9.22922 15.3679 9.22922 14.5981L9.22922 9.40192C9.22922 8.63212 10.0626 8.151 10.7292 8.5359L15.2292 11.134Z" stroke="black" stroke-width="1.58"/>
</svg>
