<svg width="101" height="54" viewBox="0 0 101 54" fill="none" xmlns="http://www.w3.org/2000/svg">
<path d="M50.6777 18.1302C49.5891 18.1302 48.6012 17.8827 47.7136 17.3873C46.8262 16.8922 46.13 16.213 45.6249 15.3501C45.1199 14.4871 44.8673 13.526 44.8673 12.4669C44.8673 11.4078 45.1199 10.4469 45.6249 9.58374C46.13 8.72079 46.8262 8.04425 47.7136 7.55379C48.6012 7.0635 49.5891 6.81836 50.6777 6.81836C51.7662 6.81836 52.7543 7.0635 53.6417 7.55379C54.5292 8.04425 55.2255 8.72079 55.7306 9.58374C56.2356 10.4469 56.4881 11.4078 56.4881 12.4669C56.4881 13.526 56.2356 14.4871 55.7306 15.3501C55.2255 16.213 54.5292 16.8922 53.6417 17.3873C52.7543 17.8827 51.7662 18.1302 50.6777 18.1302ZM47.1474 12.4669C47.1474 13.1633 47.3018 13.7835 47.6108 14.3278C47.9197 14.872 48.3438 15.2987 48.883 15.6076C49.4225 15.9165 50.0207 16.0709 50.6777 16.0709C51.3348 16.0709 51.933 15.9165 52.4723 15.6076C53.0117 15.2987 53.4358 14.872 53.7447 14.3278C54.0536 13.7835 54.2081 13.1633 54.2081 12.4669C54.2081 11.7708 54.0536 11.1505 53.7447 10.6062C53.4358 10.0619 53.0142 9.63777 52.4798 9.33373C51.9452 9.02969 51.3445 8.87767 50.6777 8.87767C50.0109 8.87767 49.4102 9.02969 48.8757 9.33373C48.3413 9.63777 47.9197 10.0619 47.6108 10.6062C47.3018 11.1505 47.1474 11.7708 47.1474 12.4669ZM45.1909 21.5202H49.8245C50.9522 21.5202 51.8348 21.8022 52.4723 22.366C53.1097 22.9299 53.4285 23.717 53.4285 24.7269C53.4285 25.4429 53.1686 26.0558 52.6488 26.5657C53.1 26.8795 53.4186 27.2424 53.605 27.6542C53.7913 28.0661 53.8844 28.5368 53.8844 29.0663C53.8844 30.1451 53.5265 30.9835 52.8107 31.5817C52.0947 32.1799 51.0994 32.4791 49.8245 32.4791H45.1909V21.5202ZM50.0893 30.4932C50.5405 30.4932 50.9057 30.3633 51.1852 30.1034C51.4646 29.8435 51.6045 29.4979 51.6045 29.0663C51.6045 28.6349 51.4672 28.2868 51.1925 28.022C50.918 27.7572 50.5502 27.6248 50.0893 27.6248H47.4709V30.4932H50.0893ZM49.9863 25.639C50.3393 25.639 50.6213 25.5384 50.8322 25.3374C51.0429 25.1364 51.1484 24.8692 51.1484 24.5358C51.1484 24.2024 51.0429 23.9352 50.8322 23.734C50.6213 23.533 50.3393 23.4325 49.9863 23.4325H47.4709V25.639H49.9863ZM45.1909 36.0455H52.6929V38.0314H47.4709V40.8115H51.9575V42.7973H47.4709V47.0044H45.1909V36.0455ZM58.1062 6.99488H59.8567L64.7993 13.5114V6.99488H67.0793V17.9537H65.3141L60.3862 11.2902V17.9537H58.1062V6.99488ZM69.021 6.99488H76.3906V8.9807H71.3009V11.4667H76.0964V13.4525H71.3009V15.9679H76.3906V17.9537H69.021V6.99488ZM55.3407 21.5202H57.6206V32.4791H55.3407V21.5202ZM64.8285 32.6556C63.789 32.6556 62.8427 32.4104 61.9895 31.9201C61.1362 31.4297 60.4646 30.7532 59.9743 29.8902C59.4838 29.0271 59.2387 28.0613 59.2387 26.9923C59.2387 25.9234 59.4789 24.9574 59.9595 24.0945C60.4401 23.2315 61.0996 22.5573 61.938 22.0718C62.7765 21.5864 63.7204 21.3437 64.7696 21.3437C65.5346 21.3437 66.2382 21.4736 66.8805 21.7336C67.5228 21.9935 68.0647 22.3439 68.506 22.7852C68.9473 23.2265 69.2659 23.7218 69.4621 24.271L67.4469 25.2418C67.2507 24.6927 66.9173 24.2489 66.4465 23.9105C65.9759 23.5722 65.4168 23.403 64.7696 23.403C64.1322 23.403 63.566 23.5526 63.0706 23.8518C62.5755 24.1508 62.1929 24.5724 61.9233 25.1168C61.6536 25.6611 61.5188 26.2862 61.5188 26.9923C61.5188 27.6983 61.6585 28.3236 61.938 28.8678C62.2174 29.4121 62.6097 29.8362 63.1147 30.1402C63.6198 30.4443 64.1911 30.5963 64.8285 30.5963C65.3384 30.5963 65.8115 30.4981 66.2479 30.302C66.6844 30.1058 67.035 29.824 67.2997 29.4562C67.5645 29.0884 67.6969 28.6594 67.6969 28.1692V28.1396H64.7696V26.2275H69.9769V27.3894C69.9769 28.5271 69.7317 29.493 69.2414 30.2874C68.7511 31.0817 68.1137 31.675 67.3291 32.0671C66.5447 32.4594 65.7111 32.6556 64.8285 32.6556ZM58.1797 47.1809C57.3267 47.1809 56.5593 46.9995 55.8777 46.6366C55.1961 46.2738 54.6617 45.7736 54.2743 45.1362C53.887 44.4988 53.6933 43.783 53.6933 42.9886V36.0455H55.9733V42.8415C55.9733 43.4986 56.1818 44.0429 56.5985 44.4743C57.0153 44.9058 57.5425 45.1216 58.1797 45.1216C58.8172 45.1216 59.3443 44.9058 59.7611 44.4743C60.1779 44.0429 60.3864 43.4986 60.3864 42.8415V36.0455H62.6663V42.9886C62.6663 43.783 62.4726 44.4988 62.0854 45.1362C61.6979 45.7736 61.1635 46.2738 60.4819 46.6366C59.8004 46.9995 59.033 47.1809 58.1797 47.1809ZM66.4467 38.0314H63.6665V36.0455H71.4628V38.0314H68.7268V47.0044H66.4467V38.0314ZM76.9495 47.1809C76.0964 47.1809 75.329 46.9995 74.6475 46.6366C73.9659 46.2738 73.4315 45.7736 73.044 45.1362C72.6568 44.4988 72.4631 43.783 72.4631 42.9886V36.0455H74.743V42.8415C74.743 43.4986 74.9515 44.0429 75.3683 44.4743C75.7851 44.9058 76.3122 45.1216 76.9495 45.1216C77.5869 45.1216 78.114 44.9058 78.5308 44.4743C78.9476 44.0429 79.1561 43.4986 79.1561 42.8415V36.0455H81.4361V42.9886C81.4361 43.783 81.2424 44.4988 80.8551 45.1362C80.4677 45.7736 79.9332 46.2738 79.2517 46.6366C78.5701 46.9995 77.8027 47.1809 76.9495 47.1809ZM83.2454 36.0455H87.4377C88.6047 36.0455 89.5437 36.3496 90.2547 36.9575C90.9656 37.5656 91.3211 38.4285 91.3211 39.5465C91.3211 40.282 91.1544 40.9121 90.821 41.4368C90.4875 41.9613 90.0217 42.3609 89.4235 42.6356L91.9243 47.0044H89.3646L87.1435 43.0328H85.5253V47.0044H83.2454V36.0455ZM87.4524 41.0469C87.933 41.0469 88.3178 40.9097 88.6071 40.635C88.8964 40.3605 89.0411 39.9976 89.0411 39.5465C89.0411 39.0953 88.8964 38.7301 88.6071 38.4506C88.3178 38.1711 87.933 38.0314 87.4524 38.0314H85.5253V41.0469H87.4524ZM93.0569 36.0455H100.426V38.0314H95.3368V40.5174H100.132V42.5032H95.3368V45.0186H100.426V47.0044H93.0569V36.0455Z" fill="#333333"/>
<path fill-rule="evenodd" clip-rule="evenodd" d="M6.8087 48.567H13.4144V54L20.285 48.567H26.7712V18.3867C26.7712 17.5244 26.6601 16.687 26.4522 15.8876C25.8528 16.8731 24.7687 17.5312 23.5308 17.5312C21.6436 17.5312 20.1137 16.0013 20.1137 14.114C20.1137 12.3524 21.4468 10.9022 23.1593 10.717C21.4279 9.27519 19.2056 8.40529 16.7899 8.40529C15.587 8.40529 14.4321 8.6209 13.3617 9.01563C13.1131 10.6581 11.6951 11.917 9.98323 11.917C9.73844 11.917 9.4999 11.8912 9.26969 11.8422C7.73889 13.5976 6.8087 15.8887 6.8087 18.3867V48.567Z" fill="#CCCCCC"/>
<path d="M16.787 6.2848C18.5225 6.2848 19.9294 4.8779 19.9294 3.14241C19.9294 1.40691 18.5225 1.52588e-05 16.787 1.52588e-05C15.0515 1.52588e-05 13.6446 1.40691 13.6446 3.14241C13.6446 4.8779 15.0515 6.2848 16.787 6.2848Z" fill="#CCCCCC"/>
<path fill-rule="evenodd" clip-rule="evenodd" d="M33.5094 43.1423H30.3511V48.5752L23.4806 43.1423H13.547V29.3387C13.547 23.8491 18.0386 19.3574 23.5282 19.3574C29.018 19.3574 33.5094 23.8491 33.5094 29.3387V43.1423Z" fill="#046A38" fill-opacity="0.701961"/>
<path fill-rule="evenodd" clip-rule="evenodd" d="M19.9626 37.561H10.0839L3.21323 42.9938V37.561H0.00012207V23.7574C0.00012207 18.2676 4.49176 13.7762 9.98135 13.7762C15.4711 13.7762 19.9626 18.2676 19.9626 23.7574V37.561Z" fill="#EF671F" fill-opacity="0.780392"/>
<path fill-rule="evenodd" clip-rule="evenodd" d="M23.5278 11.2764C25.0942 11.2764 26.364 12.5462 26.364 14.1126C26.364 15.6791 25.0942 16.9489 23.5278 16.9489C21.9614 16.9489 20.6915 15.6791 20.6915 14.1126C20.6915 12.5462 21.9614 11.2764 23.5278 11.2764Z" fill="#046A38" fill-opacity="0.701961"/>
<path fill-rule="evenodd" clip-rule="evenodd" d="M9.98056 5.66408C11.5468 5.66408 12.8165 6.93375 12.8165 8.50017C12.8165 10.0664 11.5468 11.3361 9.98056 11.3361C8.41431 11.3361 7.14464 10.0664 7.14464 8.50017C7.14464 6.93375 8.41431 5.66408 9.98056 5.66408Z" fill="#EF671F" fill-opacity="0.780392"/>
</svg>
